<svg width="20" height="20" viewBox="0 0 20 20" fill="none" xmlns="http://www.w3.org/2000/svg">
<path fill-rule="evenodd" clip-rule="evenodd" d="M5.71983 8.46997C5.86045 8.32952 6.05108 8.25063 6.24983 8.25063C6.44858 8.25063 6.6392 8.32952 6.77983 8.46997L10.2498 11.94L13.7198 8.46997C13.7885 8.39628 13.8713 8.33718 13.9633 8.29619C14.0553 8.2552 14.1546 8.23316 14.2553 8.23138C14.356 8.2296 14.456 8.24813 14.5494 8.28585C14.6428 8.32357 14.7276 8.37971 14.7989 8.45093C14.8701 8.52215 14.9262 8.60698 14.964 8.70037C15.0017 8.79376 15.0202 8.89379 15.0184 8.99449C15.0166 9.0952 14.9946 9.19451 14.9536 9.28651C14.9126 9.37851 14.8535 9.46131 14.7798 9.52997L10.7798 13.53C10.6392 13.6704 10.4486 13.7493 10.2498 13.7493C10.0511 13.7493 9.86045 13.6704 9.71983 13.53L5.71983 9.52997C5.57938 9.38935 5.50049 9.19872 5.50049 8.99997C5.50049 8.80122 5.57938 8.6106 5.71983 8.46997Z" fill="#003366"/>
</svg>
