<svg width="20" height="20" viewBox="0 0 20 20" fill="none" xmlns="http://www.w3.org/2000/svg">
<path d="M11.977 4.75098C11.3319 4.58088 10.6672 4.49649 10 4.49998C7.556 4.49998 5.804 5.54498 4.675 6.73298C4.17352 7.25783 3.75443 7.85561 3.432 8.50598C3.172 9.03798 3 9.58198 3 9.99998C3 10.418 3.171 10.962 3.432 11.493C3.604 11.847 3.832 12.227 4.119 12.609L5.193 11.535C5.03756 11.3124 4.89917 11.0784 4.779 10.835C4.558 10.382 4.5 10.082 4.5 9.99998C4.5 9.91798 4.558 9.61798 4.779 9.16498C5.03468 8.65231 5.36606 8.18103 5.762 7.76698C6.652 6.82998 8.026 5.99998 10 5.99998C10.24 5.99998 10.471 6.01198 10.693 6.03598L11.977 4.75098Z" fill="#003366"/>
<path fill-rule="evenodd" clip-rule="evenodd" d="M4.25 14.6C4.11832 14.743 4.04732 14.9316 4.05197 15.126C4.05663 15.3203 4.13657 15.5053 4.27494 15.6418C4.41332 15.7784 4.59931 15.8559 4.79371 15.858C4.98811 15.8601 5.17573 15.7866 5.317 15.653L6.379 14.592C7.354 15.135 8.556 15.5 10 15.5C12.45 15.5 14.142 14.45 15.24 13.258C16.318 12.088 16.828 10.782 16.978 10.182C17.0079 10.0625 17.0079 9.93751 16.978 9.81802C16.828 9.21802 16.318 7.91202 15.24 6.74202C15.0784 6.56639 14.9082 6.39885 14.73 6.24002L15.653 5.31702C15.791 5.17661 15.8682 4.98758 15.868 4.79073C15.8679 4.59388 15.7903 4.40499 15.6521 4.26482C15.5139 4.12464 15.3261 4.04442 15.1293 4.04147C14.9325 4.03851 14.7424 4.11306 14.6 4.24902L14.592 4.25702L4.257 14.593L4.25 14.6ZM10 14C9.022 14 8.191 13.796 7.494 13.477L8.602 12.368C9.12722 12.678 9.74058 12.8045 10.3456 12.7278C10.9506 12.6511 11.513 12.3755 11.9442 11.9442C12.3754 11.513 12.6511 10.9506 12.7278 10.3456C12.8045 9.7406 12.678 9.12725 12.368 8.60202L13.668 7.30302C13.837 7.45002 13.993 7.60302 14.137 7.75802C14.7305 8.40579 15.1839 9.16904 15.469 10C15.1839 10.831 14.7305 11.5943 14.137 12.242C13.277 13.175 11.967 14 10 14ZM10 11.25C9.913 11.25 9.828 11.24 9.746 11.224L11.224 9.74602C11.2617 9.92786 11.2585 10.1158 11.2145 10.2962C11.1705 10.4767 11.0868 10.645 10.9696 10.789C10.8524 10.9331 10.7045 11.0492 10.5368 11.1289C10.3691 11.2087 10.1857 11.25 10 11.25Z" fill="#003366"/>
</svg>
