<svg width="20" height="20" viewBox="0 0 20 20" fill="none" xmlns="http://www.w3.org/2000/svg">
<path d="M11.75 11C11.75 10.8011 11.829 10.6103 11.9697 10.4697C12.1103 10.329 12.3011 10.25 12.5 10.25H13.75C13.9489 10.25 14.1397 10.329 14.2803 10.4697C14.421 10.6103 14.5 10.8011 14.5 11C14.5 11.1989 14.421 11.3897 14.2803 11.5303C14.1397 11.671 13.9489 11.75 13.75 11.75H12.5C12.3011 11.75 12.1103 11.671 11.9697 11.5303C11.829 11.3897 11.75 11.1989 11.75 11Z" fill="#003366"/>
<path d="M12.5 8C12.3011 8 12.1103 8.07902 11.9697 8.21967C11.829 8.36032 11.75 8.55109 11.75 8.75C11.75 8.94891 11.829 9.13968 11.9697 9.28033C12.1103 9.42098 12.3011 9.5 12.5 9.5H13.75C13.9489 9.5 14.1397 9.42098 14.2803 9.28033C14.421 9.13968 14.5 8.94891 14.5 8.75C14.5 8.55109 14.421 8.36032 14.2803 8.21967C14.1397 8.07902 13.9489 8 13.75 8H12.5Z" fill="#003366"/>
<path fill-rule="evenodd" clip-rule="evenodd" d="M8 11.5C8.66304 11.5 9.29893 11.2366 9.76777 10.7678C10.2366 10.2989 10.5 9.66304 10.5 9C10.5 8.33696 10.2366 7.70107 9.76777 7.23223C9.29893 6.76339 8.66304 6.5 8 6.5C7.33696 6.5 6.70107 6.76339 6.23223 7.23223C5.76339 7.70107 5.5 8.33696 5.5 9C5.5 9.66304 5.76339 10.2989 6.23223 10.7678C6.70107 11.2366 7.33696 11.5 8 11.5ZM8 10C8.26522 10 8.51957 9.89464 8.70711 9.70711C8.89464 9.51957 9 9.26522 9 9C9 8.73478 8.89464 8.48043 8.70711 8.29289C8.51957 8.10536 8.26522 8 8 8C7.73478 8 7.48043 8.10536 7.29289 8.29289C7.10536 8.48043 7 8.73478 7 9C7 9.26522 7.10536 9.51957 7.29289 9.70711C7.48043 9.89464 7.73478 10 8 10Z" fill="#003366"/>
<path fill-rule="evenodd" clip-rule="evenodd" d="M8.518 4H11.482C12.295 4 12.951 4 13.482 4.043C14.028 4.088 14.508 4.183 14.952 4.409C15.6581 4.76837 16.2322 5.34214 16.592 6.048C16.818 6.492 16.912 6.972 16.957 7.518C17 8.049 17 8.705 17 9.518V10.482C17 11.295 17 11.951 16.957 12.482C16.912 13.028 16.817 13.508 16.591 13.952C16.2316 14.6581 15.6579 15.2322 14.952 15.592C14.508 15.818 14.028 15.912 13.482 15.957C12.951 16 12.295 16 11.482 16H8.518C7.705 16 7.049 16 6.518 15.957C5.972 15.912 5.492 15.817 5.048 15.591C4.34207 15.2319 3.76797 14.6585 3.408 13.953C3.182 13.508 3.088 13.028 3.043 12.482C3 11.951 3 11.295 3 10.482V9.518C3 8.705 3 8.049 3.043 7.518C3.088 6.972 3.183 6.492 3.409 6.048C3.76837 5.34192 4.34214 4.7678 5.048 4.408C5.492 4.182 5.972 4.088 6.518 4.043C7.049 4 7.705 4 8.518 4ZM6.641 5.538C6.187 5.575 5.926 5.645 5.729 5.745C5.30526 5.96078 4.96078 6.30526 4.745 6.729C4.645 6.926 4.575 7.187 4.538 7.641C4.501 8.103 4.5 8.698 4.5 9.55V10.45C4.5 11.303 4.5 11.897 4.538 12.36C4.558 12.604 4.588 12.792 4.626 12.944C5.67975 12.3049 6.89338 11.9782 8.12558 12.0021C9.35777 12.026 10.5578 12.3995 11.586 13.079C12.1644 13.4612 12.6776 13.9339 13.106 14.479C13.196 14.474 13.279 14.469 13.359 14.462C13.813 14.425 14.074 14.355 14.271 14.255C14.6947 14.0392 15.0392 13.6947 15.255 13.271C15.355 13.074 15.425 12.813 15.462 12.359C15.499 11.897 15.5 11.303 15.5 10.45V9.55C15.5 8.698 15.5 8.103 15.462 7.64C15.425 7.187 15.355 6.926 15.255 6.729C15.0392 6.30526 14.6947 5.96078 14.271 5.745C14.074 5.645 13.813 5.575 13.359 5.538C12.897 5.501 12.303 5.5 11.45 5.5H8.55C7.698 5.5 7.104 5.5 6.641 5.538ZM11 14.5C10.3224 13.9911 9.52642 13.6631 8.687 13.547C7.60058 13.3963 6.49477 13.6072 5.54 14.147C5.6 14.186 5.664 14.222 5.729 14.255C5.926 14.355 6.187 14.425 6.641 14.462C7.103 14.499 7.698 14.5 8.55 14.5H11Z" fill="#003366"/>
<path fill-rule="evenodd" clip-rule="evenodd" d="M8 8C7.73478 8 7.48043 8.10536 7.29289 8.29289C7.10536 8.48043 7 8.73478 7 9C7 9.26522 7.10536 9.51957 7.29289 9.70711C7.48043 9.89464 7.73478 10 8 10C8.26522 10 8.51957 9.89464 8.70711 9.70711C8.89464 9.51957 9 9.26522 9 9C9 8.73478 8.89464 8.48043 8.70711 8.29289C8.51957 8.10536 8.26522 8 8 8ZM5.5 9C5.5 8.33696 5.76339 7.70107 6.23223 7.23223C6.70107 6.76339 7.33696 6.5 8 6.5C8.66304 6.5 9.29893 6.76339 9.76777 7.23223C10.2366 7.70107 10.5 8.33696 10.5 9C10.5 9.66304 10.2366 10.2989 9.76777 10.7678C9.29893 11.2366 8.66304 11.5 8 11.5C7.33696 11.5 6.70107 11.2366 6.23223 10.7678C5.76339 10.2989 5.5 9.66304 5.5 9Z" fill="#003366"/>
</svg>
