<svg width="20" height="20" viewBox="0 0 20 20" fill="none" xmlns="http://www.w3.org/2000/svg">
<path fill-rule="evenodd" clip-rule="evenodd" d="M7.73801 4.98703C8.57565 4.60909 9.49463 4.44705 10.411 4.51573C11.3274 4.5844 12.212 4.88158 12.9839 5.38014C13.7559 5.8787 14.3906 6.56273 14.8301 7.36976C15.2696 8.17679 15.5 9.08108 15.5 10C15.5 10.874 15.273 11.44 15 11.773C14.8809 11.9238 14.7289 12.0452 14.5555 12.1279C14.3821 12.2106 14.1921 12.2524 14 12.25C13.361 12.25 13.04 12.028 12.838 11.727C12.602 11.372 12.464 10.797 12.464 10V7.42903C12.4641 7.2807 12.4202 7.13569 12.3378 7.01232C12.2555 6.88895 12.1384 6.79277 12.0014 6.73593C11.8644 6.6791 11.7136 6.66416 11.5681 6.69302C11.4226 6.72187 11.289 6.79321 11.184 6.89803C10.746 6.59803 10.172 6.39303 9.42901 6.39303C8.27001 6.39303 7.47701 6.99303 7.00701 7.74503C6.55701 8.46503 6.39301 9.32503 6.39301 10C6.39301 10.674 6.55701 11.536 7.00701 12.255C7.47701 13.007 8.27001 13.607 9.42901 13.607C10.379 13.607 11.084 13.14 11.548 12.67L11.617 12.598C12.132 13.343 12.943 13.75 14 13.75C14.824 13.75 15.6 13.403 16.157 12.727C16.707 12.059 17 11.126 17 10C17.0001 8.43422 16.4752 6.91358 15.5093 5.68122C14.5434 4.44886 13.1921 3.57594 11.6716 3.20203C10.1511 2.82812 8.54911 2.9748 7.12178 3.61862C5.69445 4.26245 4.5242 5.36624 3.79811 6.75352C3.07202 8.14081 2.83203 9.73148 3.1165 11.2712C3.40097 12.811 4.19347 14.2109 5.36731 15.2472C6.54115 16.2835 8.02854 16.8963 9.59169 16.9876C11.1548 17.0789 12.7035 16.6435 13.99 15.751C14.0748 15.6966 14.1478 15.6257 14.2045 15.5425C14.2613 15.4593 14.3007 15.3655 14.3205 15.2667C14.3402 15.1679 14.3398 15.0661 14.3194 14.9675C14.2989 14.8688 14.2588 14.7753 14.2014 14.6925C14.144 14.6097 14.0705 14.5393 13.9853 14.4856C13.9001 14.4318 13.805 14.3957 13.7055 14.3795C13.6061 14.3634 13.5044 14.3674 13.4066 14.3913C13.3087 14.4153 13.2167 14.4587 13.136 14.519C12.5078 14.9547 11.7957 15.2547 11.0452 15.3998C10.2946 15.5449 9.52199 15.5319 8.77671 15.3617C8.03142 15.1914 7.32981 14.8677 6.71664 14.4111C6.10347 13.9546 5.59222 13.3752 5.2155 12.71C4.83879 12.0448 4.60489 11.3083 4.52873 10.5476C4.45257 9.78697 4.53583 9.01878 4.77319 8.29208C5.01054 7.56538 5.39679 6.89615 5.90727 6.32708C6.41775 5.75802 7.04126 5.30163 7.73801 4.98703ZM11.014 10.864C10.9796 10.5773 10.9629 10.2888 10.964 10V9.02403L10.931 8.94903C10.841 8.74503 10.758 8.55703 10.579 8.35103C10.379 8.12303 10.057 7.89303 9.42901 7.89303C8.87301 7.89303 8.52301 8.14903 8.27901 8.54003C8.01401 8.96403 7.89301 9.53103 7.89301 10C7.89301 10.469 8.01401 11.036 8.27901 11.46C8.52301 11.85 8.87301 12.107 9.42901 12.107C9.84901 12.107 10.192 11.908 10.481 11.616C10.6948 11.3928 10.8747 11.1395 11.015 10.864H11.014Z" fill="#003366"/>
</svg>
