<svg width="20" height="20" viewBox="0 0 20 20" fill="none" xmlns="http://www.w3.org/2000/svg">
<path fill-rule="evenodd" clip-rule="evenodd" d="M5.5 6.5C5.5 4.567 7.067 3 9 3C10.933 3 12.5 4.567 12.5 6.5C12.5 8.433 10.933 10 9 10C7.067 10 5.5 8.433 5.5 6.5ZM9 4.5C7.895 4.5 7 5.395 7 6.5C7 7.605 7.895 8.5 9 8.5C10.105 8.5 11 7.605 11 6.5C11 5.395 10.105 4.5 9 4.5Z" fill="#003366"/>
<path d="M9.00022 12.5C7.26622 12.5 5.67022 13.44 4.82722 14.955L4.52522 15.5H10.2502C10.6642 15.5 11.0002 15.836 11.0002 16.25C11.0002 16.664 10.6642 17 10.2502 17H4.24922C3.22922 17 2.58421 15.904 3.07921 15.013L3.51621 14.227C4.62221 12.235 6.72221 11 9.00022 11C9.41422 11 9.75022 11.336 9.75022 11.75C9.75022 12.164 9.41422 12.5 9.00022 12.5Z" fill="#003366"/>
<path d="M15.5 11.375C15.5 11.858 15.108 12.25 14.625 12.25C14.142 12.25 13.75 11.858 13.75 11.375C13.75 10.892 14.142 10.5 14.625 10.5C15.108 10.5 15.5 10.892 15.5 11.375Z" fill="#003366"/>
<path fill-rule="evenodd" clip-rule="evenodd" d="M11.25 11.376C11.25 9.511 12.761 8 14.626 8C16.49 8 18.002 9.511 18.002 11.376V12.102C18.002 12.833 17.637 13.479 17.079 13.868C17.129 14.221 17.077 14.581 16.934 14.904C17.229 15.656 17.051 16.554 16.392 17.13L15.995 17.477C15.08 18.275 13.671 18.081 13.006 17.065L12.68 16.567C12.467 16.242 12.354 15.861 12.354 15.472V13.98C11.695 13.613 11.25 12.91 11.25 12.101V11.376ZM13.66 12.833C13.586 12.782 13.497 12.752 13.4 12.752C13.041 12.752 12.75 12.461 12.75 12.102V11.376C12.75 10.34 13.59 9.5 14.626 9.5C15.662 9.5 16.502 10.34 16.502 11.376V12.102C16.502 12.461 16.211 12.752 15.852 12.752H15.605C15.499 12.752 15.4 12.786 15.32 12.844C15.206 12.926 15.13 13.056 15.119 13.205L15.118 13.22V13.24C15.118 13.352 15.156 13.462 15.228 13.549L15.51 13.894C15.674 14.094 15.597 14.396 15.357 14.494L15.354 14.495C15.161 14.575 15.08 14.783 15.134 14.961C15.154 15.031 15.196 15.096 15.259 15.148L15.392 15.257C15.406 15.267 15.418 15.278 15.43 15.29C15.626 15.486 15.62 15.813 15.405 16L15.008 16.347C14.848 16.487 14.625 16.505 14.449 16.414C14.439 16.409 14.428 16.403 14.418 16.396L14.413 16.394C14.379 16.372 14.348 16.347 14.319 16.317L14.313 16.31C14.294 16.29 14.277 16.268 14.261 16.244L13.935 15.746C13.882 15.664 13.853 15.569 13.853 15.472V13.205C13.853 13.051 13.778 12.915 13.66 12.833Z" fill="#003366"/>
</svg>
