<svg width="20" height="20" viewBox="0 0 20 20" fill="none" xmlns="http://www.w3.org/2000/svg">
<path fill-rule="evenodd" clip-rule="evenodd" d="M10 3C9.54037 3 9.08525 3.09053 8.66061 3.26642C8.23597 3.44231 7.85013 3.70012 7.52513 4.02513C7.20012 4.35013 6.94231 4.73597 6.76642 5.16061C6.59053 5.58525 6.5 6.04037 6.5 6.5C6.5 6.95963 6.59053 7.41475 6.76642 7.83939C6.94231 8.26403 7.20012 8.64987 7.52513 8.97487C7.85013 9.29988 8.23597 9.55769 8.66061 9.73358C9.08525 9.90947 9.54037 10 10 10C10.9283 10 11.8185 9.63125 12.4749 8.97487C13.1313 8.3185 13.5 7.42826 13.5 6.5C13.5 5.57174 13.1313 4.6815 12.4749 4.02513C11.8185 3.36875 10.9283 3 10 3ZM8 6.5C8 5.96957 8.21071 5.46086 8.58579 5.08579C8.96086 4.71071 9.46957 4.5 10 4.5C10.5304 4.5 11.0391 4.71071 11.4142 5.08579C11.7893 5.46086 12 5.96957 12 6.5C12 7.03043 11.7893 7.53914 11.4142 7.91421C11.0391 8.28929 10.5304 8.5 10 8.5C9.46957 8.5 8.96086 8.28929 8.58579 7.91421C8.21071 7.53914 8 7.03043 8 6.5Z" fill="#003366"/>
<path fill-rule="evenodd" clip-rule="evenodd" d="M15.4841 14.227C14.9406 13.2491 14.1456 12.4344 13.1814 11.8671C12.2172 11.2999 11.1188 11.0007 10.0001 11.0007C8.88136 11.0007 7.78299 11.2999 6.81876 11.8671C5.85453 12.4344 5.05952 13.2491 4.51607 14.227L4.07907 15.013C3.9661 15.2167 3.90825 15.4463 3.91124 15.6792C3.91424 15.9121 3.97798 16.1402 4.09616 16.3409C4.21434 16.5416 4.38287 16.708 4.58507 16.8236C4.78728 16.9392 5.01616 17 5.24907 17H14.7511C14.984 17 15.2129 16.9392 15.4151 16.8236C15.6173 16.708 15.7858 16.5416 15.904 16.3409C16.0222 16.1402 16.0859 15.9121 16.0889 15.6792C16.0919 15.4463 16.034 15.2167 15.9211 15.013L15.4841 14.227ZM5.82707 14.955C6.24035 14.2106 6.84522 13.5903 7.57898 13.1584C8.31273 12.7265 9.14865 12.4988 10.0001 12.4988C10.8515 12.4988 11.6874 12.7265 12.4212 13.1584C13.1549 13.5903 13.7598 14.2106 14.1731 14.955L14.4751 15.5H5.52507L5.82707 14.955Z" fill="#003366"/>
</svg>
