<svg width="20" height="20" viewBox="0 0 20 20" fill="none" xmlns="http://www.w3.org/2000/svg">
<path fill-rule="evenodd" clip-rule="evenodd" d="M10 7.25C9.31 7.25 8.75 7.81001 8.75 8.50001C8.75 8.69892 8.67098 8.88968 8.53033 9.03033C8.38968 9.17099 8.19891 9.25001 8 9.25001C7.80109 9.25001 7.61032 9.17099 7.46967 9.03033C7.32902 8.88968 7.25 8.69892 7.25 8.50001C7.25025 8.00004 7.3868 7.5096 7.64496 7.08144C7.90312 6.65329 8.27311 6.3036 8.71515 6.07001C9.15719 5.83642 9.65455 5.72776 10.1537 5.75571C10.6529 5.78365 11.135 5.94716 11.5482 6.22864C11.9614 6.51012 12.2901 6.89892 12.4988 7.35322C12.7076 7.80752 12.7885 8.31013 12.733 8.807C12.6774 9.30387 12.4874 9.77619 12.1835 10.1732C11.8796 10.5701 11.4732 10.8767 11.008 11.06C10.9226 11.0915 10.8454 11.1418 10.782 11.207C10.7686 11.2203 10.7578 11.2358 10.75 11.253C10.7496 11.4519 10.6702 11.6425 10.5293 11.7829C10.3883 11.9233 10.1974 12.0019 9.9985 12.0015C9.79959 12.0011 9.60898 11.9217 9.46861 11.7808C9.32824 11.6398 9.2496 11.4489 9.25 11.25C9.25 10.385 9.946 9.865 10.458 9.664C10.7294 9.55775 10.9552 9.35997 11.0963 9.10487C11.2373 8.84977 11.2848 8.55339 11.2305 8.267C11.1761 7.98061 11.0234 7.72221 10.7987 7.5365C10.574 7.35079 10.2915 7.24945 10 7.25Z" fill="#E4332C"/>
<path d="M10 14.5C10.2652 14.5 10.5196 14.3946 10.7071 14.2071C10.8946 14.0196 11 13.7652 11 13.5C11 13.2348 10.8946 12.9804 10.7071 12.7929C10.5196 12.6054 10.2652 12.5 10 12.5C9.73478 12.5 9.48043 12.6054 9.29289 12.7929C9.10536 12.9804 9 13.2348 9 13.5C9 13.7652 9.10536 14.0196 9.29289 14.2071C9.48043 14.3946 9.73478 14.5 10 14.5Z" fill="#E4332C"/>
<path fill-rule="evenodd" clip-rule="evenodd" d="M10 17C10.9193 17 11.8295 16.8189 12.6788 16.4672C13.5281 16.1154 14.2997 15.5998 14.9497 14.9497C15.5998 14.2997 16.1154 13.5281 16.4672 12.6788C16.8189 11.8295 17 10.9193 17 10C17 9.08075 16.8189 8.1705 16.4672 7.32122C16.1154 6.47194 15.5998 5.70026 14.9497 5.05025C14.2997 4.40024 13.5281 3.88463 12.6788 3.53284C11.8295 3.18106 10.9193 3 10 3C8.14348 3 6.36301 3.7375 5.05025 5.05025C3.7375 6.36301 3 8.14348 3 10C3 11.8565 3.7375 13.637 5.05025 14.9497C6.36301 16.2625 8.14348 17 10 17ZM10 15.5C11.4587 15.5 12.8576 14.9205 13.8891 13.8891C14.9205 12.8576 15.5 11.4587 15.5 10C15.5 8.54131 14.9205 7.14236 13.8891 6.11091C12.8576 5.07946 11.4587 4.5 10 4.5C8.54131 4.5 7.14236 5.07946 6.11091 6.11091C5.07946 7.14236 4.5 8.54131 4.5 10C4.5 11.4587 5.07946 12.8576 6.11091 13.8891C7.14236 14.9205 8.54131 15.5 10 15.5Z" fill="#E4332C"/>
</svg>
