<svg width="20" height="20" viewBox="0 0 20 20" fill="none" xmlns="http://www.w3.org/2000/svg">
<path fill-rule="evenodd" clip-rule="evenodd" d="M12.3228 13.383C11.2122 14.225 9.82343 14.6139 8.43709 14.4713C7.05074 14.3287 5.77024 13.665 4.85438 12.6146C3.93851 11.5641 3.45559 10.2051 3.50321 8.81225C3.55084 7.4194 4.12545 6.09657 5.11092 5.1111C6.09639 4.12563 7.41922 3.55102 8.81207 3.5034C10.2049 3.45578 11.5639 3.9387 12.6144 4.85456C13.6649 5.77042 14.3285 7.05092 14.4711 8.43727C14.6138 9.82361 14.2248 11.2124 13.3828 12.323L16.2798 15.22C16.3535 15.2887 16.4126 15.3715 16.4536 15.4635C16.4946 15.5555 16.5166 15.6548 16.5184 15.7555C16.5202 15.8562 16.5017 15.9562 16.4639 16.0496C16.4262 16.143 16.3701 16.2278 16.2988 16.299C16.2276 16.3702 16.1428 16.4264 16.0494 16.4641C15.956 16.5018 15.856 16.5204 15.7553 16.5186C15.6546 16.5168 15.5553 16.4948 15.4633 16.4538C15.3713 16.4128 15.2885 16.3537 15.2198 16.28L12.3228 13.383ZM12.9998 8.99999C12.9998 10.0609 12.5784 11.0783 11.8282 11.8284C11.0781 12.5786 10.0607 13 8.99981 13C7.93894 13 6.92153 12.5786 6.17138 11.8284C5.42123 11.0783 4.99981 10.0609 4.99981 8.99999C4.99981 7.93912 5.42123 6.92171 6.17138 6.17156C6.92153 5.42142 7.93894 4.99999 8.99981 4.99999C10.0607 4.99999 11.0781 5.42142 11.8282 6.17156C12.5784 6.92171 12.9998 7.93912 12.9998 8.99999Z" fill="black"/>
</svg>
