<svg width="20" height="20" viewBox="0 0 20 20" fill="none" xmlns="http://www.w3.org/2000/svg">
<path fill-rule="evenodd" clip-rule="evenodd" d="M13 10C13 10.7956 12.6839 11.5587 12.1213 12.1213C11.5587 12.6839 10.7956 13 10 13C9.20435 13 8.44129 12.6839 7.87868 12.1213C7.31607 11.5587 7 10.7956 7 10C7 9.20435 7.31607 8.44129 7.87868 7.87868C8.44129 7.31607 9.20435 7 10 7C10.7956 7 11.5587 7.31607 12.1213 7.87868C12.6839 8.44129 13 9.20435 13 10ZM11.5 10C11.5 10.3978 11.342 10.7794 11.0607 11.0607C10.7794 11.342 10.3978 11.5 10 11.5C9.60218 11.5 9.22064 11.342 8.93934 11.0607C8.65804 10.7794 8.5 10.3978 8.5 10C8.5 9.60218 8.65804 9.22064 8.93934 8.93934C9.22064 8.65804 9.60218 8.5 10 8.5C10.3978 8.5 10.7794 8.65804 11.0607 8.93934C11.342 9.22064 11.5 9.60218 11.5 10Z" fill="#003366"/>
<path fill-rule="evenodd" clip-rule="evenodd" d="M10 4C7.524 4 5.652 5.23 4.423 6.532C3.87573 7.10988 3.40519 7.75587 3.023 8.454C2.87934 8.71701 2.75566 8.99045 2.653 9.272C2.571 9.499 2.5 9.76 2.5 10C2.5 10.24 2.571 10.501 2.652 10.728C2.74 10.974 2.865 11.252 3.023 11.546C3.34 12.133 3.807 12.816 4.423 13.468C5.652 14.77 7.523 16 10 16C12.476 16 14.348 14.77 15.577 13.468C16.1243 12.8901 16.5948 12.2441 16.977 11.546C17.1207 11.283 17.2443 11.0096 17.347 10.728C17.429 10.501 17.5 10.24 17.5 10C17.5 9.76 17.429 9.499 17.348 9.272C17.245 8.99042 17.121 8.71699 16.977 8.454C16.5948 7.75588 16.1242 7.1099 15.577 6.532C14.348 5.23 12.477 4 10 4ZM4.001 10.002V9.998C4.005 9.978 4.018 9.908 4.065 9.775C4.14246 9.56572 4.23539 9.36249 4.343 9.167C4.66271 8.58414 5.05593 8.04473 5.513 7.562C6.555 6.458 8.058 5.5 10 5.5C11.942 5.5 13.445 6.458 14.486 7.562C14.9431 8.04475 15.3363 8.58415 15.656 9.167C15.786 9.407 15.877 9.614 15.935 9.775C15.982 9.907 15.995 9.978 15.999 9.998V10.002C15.995 10.022 15.982 10.092 15.935 10.225C15.8575 10.4343 15.7646 10.6375 15.657 10.833C15.3373 11.4159 14.9441 11.9553 14.487 12.438C13.445 13.542 11.942 14.5 10 14.5C8.058 14.5 6.555 13.542 5.514 12.438C5.05691 11.9553 4.6637 11.4159 4.344 10.833C4.23604 10.6375 4.14279 10.4343 4.065 10.225C4.018 10.093 4.005 10.022 4.001 10.002Z" fill="#003366"/>
</svg>
