<svg width="11" height="11" viewBox="0 0 11 11" fill="none" xmlns="http://www.w3.org/2000/svg">
<path d="M9.23871 10.2613C9.30737 10.335 9.39017 10.3941 9.48217 10.4351C9.57417 10.4761 9.67348 10.4981 9.77419 10.4999C9.87489 10.5017 9.97492 10.4831 10.0683 10.4454C10.1617 10.4077 10.2465 10.3515 10.3177 10.2803C10.389 10.2091 10.4451 10.1243 10.4828 10.0309C10.5206 9.9375 10.5391 9.83747 10.5373 9.73677C10.5355 9.63607 10.5135 9.53675 10.4725 9.44475C10.4315 9.35275 10.3724 9.26995 10.2987 9.20129L6.32871 5.23129L10.2987 1.26129C10.4312 1.11912 10.5033 0.93107 10.4999 0.736769C10.4965 0.542468 10.4177 0.357083 10.2803 0.21967C10.1429 0.0822568 9.95753 0.00354506 9.76323 0.000116847C9.56893 -0.00331137 9.38088 0.0688116 9.23871 0.201292L5.26871 4.17129L1.29871 0.201292C1.15653 0.0688116 0.968487 -0.00331137 0.774186 0.000116847C0.579884 0.00354506 0.394499 0.0822568 0.257086 0.21967C0.119673 0.357083 0.0409614 0.542468 0.0375332 0.736769C0.034105 0.93107 0.106228 1.11912 0.238708 1.26129L4.20871 5.23129L0.238708 9.20129C0.165021 9.26995 0.105919 9.35275 0.064927 9.44475C0.023935 9.53675 0.00189351 9.63607 0.000116722 9.73677C-0.00166006 9.83747 0.0168643 9.9375 0.0545854 10.0309C0.0923064 10.1243 0.148451 10.2091 0.21967 10.2803C0.290888 10.3515 0.375722 10.4077 0.46911 10.4454C0.562499 10.4831 0.662528 10.5017 0.763231 10.4999C0.863934 10.4981 0.963247 10.4761 1.05525 10.4351C1.14725 10.3941 1.23005 10.335 1.29871 10.2613L5.26871 6.29129L9.23871 10.2613Z" fill="#E4332C"/>
</svg>
