<svg xmlns="http://www.w3.org/2000/svg" width="179.998" height="180" viewBox="0 0 179.998 180"><g transform="translate(-0.006 -0.004)"><path d="M44.681,188.776l17.589-27.038S36,151.3,23.758,160.657,0,195.934,0,195.934L13.051,203.5S29.564,171.5,44.681,188.776Z" transform="translate(0 -101.647)" fill="#fff"/><path d="M237.034,352.476l27.038-17.589s10.437,26.274,1.082,38.513-35.278,23.753-35.278,23.753l-7.559-13.046S254.315,367.594,237.034,352.476Z" transform="translate(-144.154 -217.149)" fill="#fff"/><path d="M107.9,325.188l-4.642-4.636C94.817,342.481,75,337.845,75,337.845s-4.636-19.82,17.293-28.257l-4.636-4.636c-12.233-2.109-27.84,12.651-30.372,26.988a213.925,213.925,0,0,0-2.95,26.565,212.861,212.861,0,0,0,26.571-2.95C95.246,353.022,110.006,337.422,107.9,325.188Z" transform="translate(-35.227 -197.606)" fill="#fff"/><path d="M272.659,2.385c-19.139-8.97-67.605,7.806-94.561,43.556-20.539,27.23-31.531,45.577-31.531,45.577l16.315,16.315,4.329,4.329,16.31,16.31s18.358-10.986,45.588-31.52C264.847,69.991,281.629,21.524,272.659,2.385ZM191.59,83.455a11.534,11.534,0,1,1,16.315,0A11.537,11.537,0,0,1,191.59,83.455Zm27.043-27.038a14.91,14.91,0,1,1,21.083,0A14.912,14.912,0,0,1,218.633,56.417Z" transform="translate(-95.036)" fill="#fff"/></g></svg>